# xmcd CD database file
#
# Track frame offsets:
#	150
#	14023
#	29745
#	41726
#	52530
#	66097
#	78294
#	90895
#	102017
#	115171
#	118468
#
# Disc length: 1757 seconds
#
# Revision: 0
# Processed by: cddbd v1.5.2PL0 Copyright (c) Steve Scherf et al.
# Submitted via: CDex 1.51
#
DISCID=8606db0b
DTITLE=Men of Action! - Country for Grooves
DYEAR=2008
DGENRE=Country
TTITLE0=One Time Offer
TTITLE1=If Memory Serves Me
TTITLE2=We've Been Here Before
TTITLE3=Shame on You
TTITLE4=If I Were a Cheater
TTITLE5=It's Only Me
TTITLE6=Just In Case
TTITLE7=Next Time Around
TTITLE8=One More Time
TTITLE9=Live From Blue Highways
TTITLE10=Tremble
EXTD=YEAR: 2008
EXTT0=
EXTT1=
EXTT2=
EXTT3=
EXTT4=
EXTT5=
EXTT6=
EXTT7=
EXTT8=
EXTT9=
EXTT10=
PLAYORDER=
